<?xml version="1.0" encoding="utf-8"?>
<!-- Generator: Adobe Illustrator 16.0.0, SVG Export Plug-In . SVG Version: 6.00 Build 0)  -->
<!DOCTYPE svg PUBLIC "-//W3C//DTD SVG 1.1//EN" "http://www.w3.org/Graphics/SVG/1.1/DTD/svg11.dtd">
<svg version="1.1" id="Layer_1" xmlns="http://www.w3.org/2000/svg" xmlns:xlink="http://www.w3.org/1999/xlink" x="0px" y="0px"
	 width="100px" height="100px" viewBox="0 0 100 100" enable-background="new 0 0 100 100" xml:space="preserve">
<rect fill="#FF851B" width="100" height="100"/>
<linearGradient id="SVGID_1_" gradientUnits="userSpaceOnUse" x1="0" y1="50" x2="100" y2="50" gradientTransform="matrix(-1 0 0 1 100 0)">
	<stop  offset="0" style="stop-color:#FFFFFF;stop-opacity:0"/>
	<stop  offset="1" style="stop-color:#111111"/>
</linearGradient>
<rect opacity="0.3" fill="url(#SVGID_1_)" width="100" height="100"/>
<polygon opacity="0.1" fill="#111111" points="50,50 0,100 0,0 "/>
<polygon opacity="0.1" fill="#FFFFFF" points="50,50 100,100 100,0 "/>
<path fill="#FF851B" d="M15.115,15.115C11.87,25.336,10,37.258,10,50c0,12.742,1.87,24.664,5.115,34.885
	C25.336,88.131,37.258,90,50,90s24.664-1.869,34.885-5.115C88.131,74.665,90,62.742,90,50s-1.869-24.664-5.115-34.885
	C74.664,11.87,62.742,10,50,10S25.336,11.87,15.115,15.115z"/>
<linearGradient id="SVGID_2_" gradientUnits="userSpaceOnUse" x1="10" y1="50" x2="90" y2="50">
	<stop  offset="0" style="stop-color:#FFFFFF;stop-opacity:0"/>
	<stop  offset="1" style="stop-color:#111111"/>
</linearGradient>
<path opacity="0.3" fill="url(#SVGID_2_)" d="M15.115,15.115C11.87,25.336,10,37.258,10,50c0,12.742,1.87,24.664,5.115,34.885
	C25.336,88.131,37.258,90,50,90s24.664-1.869,34.885-5.115C88.131,74.665,90,62.742,90,50s-1.869-24.664-5.115-34.885
	C74.664,11.87,62.742,10,50,10S25.336,11.87,15.115,15.115z"/>
<g opacity="0.1">
	<path fill="#FFFFFF" d="M50,10.5c12.137,0,24.056,1.733,34.486,5.014C87.767,25.943,89.5,37.862,89.5,50
		c0,12.14-1.733,24.058-5.014,34.486C74.057,87.767,62.139,89.5,50,89.5c-12.138,0-24.057-1.733-34.486-5.014
		C12.233,74.056,10.5,62.137,10.5,50s1.733-24.055,5.014-34.486C25.945,12.233,37.864,10.5,50,10.5 M50,10
		c-12.742,0-24.664,1.87-34.885,5.115C11.87,25.336,10,37.258,10,50c0,12.742,1.87,24.664,5.115,34.885
		C25.336,88.131,37.258,90,50,90s24.664-1.869,34.885-5.115C88.131,74.665,90,62.742,90,50s-1.869-24.664-5.115-34.885
		C74.664,11.87,62.742,10,50,10L50,10z"/>
</g>
<g opacity="0.8">
	<path fill="#FFFFFF" d="M59.823,63.152c0,0.045,0,0.392,0,1.038c0,0.647-0.078,1.438-0.232,2.376
		c-0.157,0.938-0.425,1.919-0.804,2.944c-0.381,1.027-0.949,1.941-1.706,2.745C55.341,74.085,52.931,75,49.853,75
		c-3.08,0-5.422-0.915-7.028-2.744c-0.803-0.848-1.396-1.763-1.774-2.745c-0.38-0.98-0.636-1.906-0.77-2.777
		c-0.133-0.87-0.19-1.616-0.167-2.242c0.022-0.624,0.034-1.004,0.034-1.138V35.845c0-3.571,1.071-6.359,3.212-8.367
		c0.847-0.758,1.841-1.361,2.979-1.808C47.476,25.224,48.646,25,49.853,25c2.409,0,4.595,0.804,6.559,2.411
		c1.116,0.938,1.974,2.22,2.576,3.848c0.604,1.629,0.905,3.404,0.905,5.321H58.42c0-1.74-0.259-3.256-0.771-4.551
		c-0.513-1.294-1.182-2.353-2.008-3.18c-0.827-0.825-1.75-1.438-2.777-1.841c-1.026-0.401-2.031-0.603-3.011-0.603
		c-1.028,0-2.043,0.191-3.046,0.57c-1.003,0.379-1.897,0.948-2.678,1.706c-0.781,0.759-1.404,1.741-1.873,2.946
		c-0.469,1.204-0.703,2.61-0.703,4.217v27.576v0.066c0,1.116,0.056,2.064,0.167,2.844c0.111,0.782,0.335,1.619,0.669,2.512
		c0.335,0.893,0.836,1.695,1.505,2.408c1.428,1.562,3.413,2.343,5.958,2.343c2.632,0,4.685-0.78,6.157-2.343
		c0.67-0.713,1.172-1.527,1.505-2.441c0.335-0.915,0.568-1.797,0.702-2.645s0.203-1.852,0.203-3.013H59.823z"/>
</g>
</svg>
