<?xml version="1.0" encoding="utf-8"?>
<!-- Generator: Adobe Illustrator 16.0.0, SVG Export Plug-In . SVG Version: 6.00 Build 0)  -->
<!DOCTYPE svg PUBLIC "-//W3C//DTD SVG 1.1//EN" "http://www.w3.org/Graphics/SVG/1.1/DTD/svg11.dtd">
<svg version="1.1" id="Layer_1" xmlns="http://www.w3.org/2000/svg" xmlns:xlink="http://www.w3.org/1999/xlink" x="0px" y="0px"
	 width="100px" height="100px" viewBox="0 0 100 100" enable-background="new 0 0 100 100" xml:space="preserve">
<rect fill="#FF851B" width="100" height="100"/>
<linearGradient id="SVGID_1_" gradientUnits="userSpaceOnUse" x1="0" y1="50" x2="100" y2="50" gradientTransform="matrix(-1 0 0 1 100 0)">
	<stop  offset="0" style="stop-color:#FFFFFF;stop-opacity:0"/>
	<stop  offset="1" style="stop-color:#111111"/>
</linearGradient>
<rect opacity="0.3" fill="url(#SVGID_1_)" width="100" height="100"/>
<polygon opacity="0.1" fill="#111111" points="50,50 0,100 0,0 "/>
<polygon opacity="0.1" fill="#FFFFFF" points="50,50 100,100 100,0 "/>
<path fill="#FF851B" d="M15.115,15.115C11.87,25.336,10,37.258,10,50c0,12.742,1.87,24.664,5.115,34.885
	C25.336,88.131,37.258,90,50,90s24.664-1.869,34.885-5.115C88.131,74.665,90,62.742,90,50s-1.869-24.664-5.115-34.885
	C74.664,11.87,62.742,10,50,10S25.336,11.87,15.115,15.115z"/>
<linearGradient id="SVGID_2_" gradientUnits="userSpaceOnUse" x1="10" y1="50" x2="90" y2="50">
	<stop  offset="0" style="stop-color:#FFFFFF;stop-opacity:0"/>
	<stop  offset="1" style="stop-color:#111111"/>
</linearGradient>
<path opacity="0.3" fill="url(#SVGID_2_)" d="M15.115,15.115C11.87,25.336,10,37.258,10,50c0,12.742,1.87,24.664,5.115,34.885
	C25.336,88.131,37.258,90,50,90s24.664-1.869,34.885-5.115C88.131,74.665,90,62.742,90,50s-1.869-24.664-5.115-34.885
	C74.664,11.87,62.742,10,50,10S25.336,11.87,15.115,15.115z"/>
<g opacity="0.1">
	<path fill="#FFFFFF" d="M50,10.5c12.137,0,24.056,1.733,34.486,5.014C87.767,25.943,89.5,37.862,89.5,50
		c0,12.14-1.733,24.058-5.014,34.486C74.057,87.767,62.139,89.5,50,89.5c-12.138,0-24.057-1.733-34.486-5.014
		C12.233,74.056,10.5,62.137,10.5,50s1.733-24.055,5.014-34.486C25.945,12.233,37.864,10.5,50,10.5 M50,10
		c-12.742,0-24.664,1.87-34.885,5.115C11.87,25.336,10,37.258,10,50c0,12.742,1.87,24.664,5.115,34.885
		C25.336,88.131,37.258,90,50,90s24.664-1.869,34.885-5.115C88.131,74.665,90,62.742,90,50s-1.869-24.664-5.115-34.885
		C74.664,11.87,62.742,10,50,10L50,10z"/>
</g>
<g opacity="0.8">
	<path fill="#FFFFFF" d="M55.557,28.636c1.69,2.515,2.514,5.328,2.47,8.437c0,1.462-0.173,2.821-0.517,4.08
		c-0.341,1.258-0.798,2.377-1.37,3.36c-0.572,0.985-1.226,1.794-1.954,2.437c-0.733,0.639-1.51,1.097-2.333,1.37
		c0.96,0.137,1.998,0.527,3.12,1.167c1.119,0.639,2.001,1.418,2.641,2.33c0.915,1.328,1.602,2.803,2.06,4.427
		c0.455,1.621,0.684,3.327,0.684,5.106c0,2.976-0.422,5.351-1.267,7.134c-0.849,1.783-1.898,3.156-3.157,4.116
		c-1.258,0.961-2.629,1.602-4.113,1.92C50.332,74.841,48.903,75,47.532,75h-7.065h-0.823V25h8.643c1.965,0,3.475,0.321,4.526,0.96
		C53.865,26.602,54.777,27.492,55.557,28.636z M41.086,47.703h7.75c1.142,0,2.193-0.288,3.153-0.859
		c0.96-0.575,1.783-1.354,2.47-2.339c0.687-0.988,1.212-2.124,1.577-3.408c0.365-1.284,0.55-2.637,0.55-4.061
		c0-1.42-0.195-2.774-0.583-4.058c-0.391-1.284-0.927-2.409-1.613-3.372c-0.687-0.965-1.484-1.733-2.4-2.305
		c-0.915-0.575-1.92-0.862-3.017-0.862h-7.887V47.703z M47.532,73.561c2.238,0,4.103-0.332,5.591-0.994
		c1.484-0.664,2.662-1.555,3.53-2.676c0.867-1.119,1.476-2.423,1.819-3.91c0.341-1.484,0.488-3.028,0.443-4.631
		c-0.092-4.205-1.041-7.292-2.847-9.256c-1.806-1.968-4.652-2.951-8.537-2.951h-6.446v24.417H47.532z"/>
</g>
</svg>
