<?xml version="1.0" encoding="utf-8"?>
<!-- Generator: Adobe Illustrator 16.0.0, SVG Export Plug-In . SVG Version: 6.00 Build 0)  -->
<!DOCTYPE svg PUBLIC "-//W3C//DTD SVG 1.1//EN" "http://www.w3.org/Graphics/SVG/1.1/DTD/svg11.dtd">
<svg version="1.1" id="Layer_1" xmlns="http://www.w3.org/2000/svg" xmlns:xlink="http://www.w3.org/1999/xlink" x="0px" y="0px"
	 width="50px" height="25px" viewBox="0 0 50 25" enable-background="new 0 0 50 25" xml:space="preserve">
<path fill="#01FF70" d="M50,23c0,1.1-0.9,2-2,2H2c-1.1,0-2-0.9-2-2V2c0-1.1,0.9-2,2-2h46c1.1,0,2,0.9,2,2V23z"/>
<g>
	<line fill="none" stroke="#3D9970" stroke-miterlimit="10" x1="1.821" y1="6.084" x2="48.175" y2="6.084"/>
	<line fill="none" stroke="#3D9970" stroke-miterlimit="10" x1="1.821" y1="7.917" x2="48.175" y2="7.917"/>
	<line fill="none" stroke="#3D9970" stroke-miterlimit="10" x1="1.821" y1="9.75" x2="48.175" y2="9.75"/>
	<line fill="none" stroke="#3D9970" stroke-miterlimit="10" x1="1.821" y1="11.583" x2="48.175" y2="11.583"/>
	<line fill="none" stroke="#3D9970" stroke-miterlimit="10" x1="1.821" y1="13.417" x2="48.175" y2="13.417"/>
	<line fill="none" stroke="#3D9970" stroke-miterlimit="10" x1="1.821" y1="15.25" x2="48.175" y2="15.25"/>
	<line fill="none" stroke="#3D9970" stroke-miterlimit="10" x1="1.821" y1="17.083" x2="48.175" y2="17.083"/>
	<line fill="none" stroke="#3D9970" stroke-miterlimit="10" x1="1.821" y1="18.916" x2="48.175" y2="18.916"/>
	<line fill="none" stroke="#3D9970" stroke-miterlimit="10" x1="1.821" y1="20.749" x2="48.175" y2="20.749"/>
	<line fill="none" stroke="#3D9970" stroke-miterlimit="10" x1="1.821" y1="4.251" x2="48.175" y2="4.251"/>
</g>
<g>
	<g>
		<path fill="#3D9970" d="M17.431,3.105c-2.276,2.383-3.616,5.77-3.616,9.395c0,3.625,1.339,7.012,3.616,9.395H5.282
			c-0.223-1.405-1.206-2.524-2.46-2.818V5.924C4.076,5.63,5.059,4.51,5.282,3.105H17.431 M20.244,2.105H4.3
			C4.317,2.234,4.329,2.365,4.329,2.5c0,1.381-0.97,2.5-2.165,2.5c-0.117,0-0.23-0.014-0.343-0.034v15.068
			C1.934,20.014,2.047,20,2.164,20c1.195,0,2.165,1.119,2.165,2.5c0,0.135-0.012,0.266-0.029,0.395h15.944
			c-3.228-1.971-5.429-5.885-5.429-10.395C14.815,7.991,17.017,4.077,20.244,2.105L20.244,2.105z"/>
	</g>
	<g>
		<path fill="#3D9970" d="M44.715,3.105c0.222,1.405,1.205,2.524,2.46,2.819v13.152c-1.255,0.294-2.238,1.413-2.46,2.818H32.565
			c2.276-2.383,3.615-5.77,3.615-9.395c0-3.625-1.34-7.012-3.616-9.395H44.715 M45.696,2.105H29.752
			c3.228,1.971,5.429,5.885,5.429,10.395c0,4.51-2.201,8.424-5.429,10.395h15.944c-0.018-0.129-0.029-0.26-0.029-0.395
			c0-1.381,0.97-2.5,2.165-2.5c0.117,0,0.23,0.014,0.343,0.034V4.966C48.062,4.986,47.949,5,47.832,5
			c-1.195,0-2.165-1.119-2.165-2.5C45.667,2.365,45.679,2.234,45.696,2.105L45.696,2.105z"/>
	</g>
</g>
<path fill="#01FF70" d="M48,0H2C0.9,0,0,0.9,0,2v21c0,1.1,0.9,2,2,2h46c1.093,0,1.987-0.891,1.998-1.98V1.981
	C49.987,0.89,49.093,0,48,0z M20.244,22.895H4.3c0.018-0.129,0.029-0.26,0.029-0.395c0-1.381-0.97-2.5-2.165-2.5
	c-0.117,0-0.23,0.014-0.343,0.034V4.966C1.934,4.986,2.047,5,2.164,5c1.195,0,2.165-1.119,2.165-2.5
	c0-0.135-0.012-0.266-0.029-0.395h15.944c-3.228,1.971-5.429,5.885-5.429,10.395C14.815,17.01,17.017,20.924,20.244,22.895z
	 M48.175,20.034C48.062,20.014,47.949,20,47.832,20c-1.195,0-2.165,1.119-2.165,2.5c0,0.135,0.012,0.266,0.029,0.395H29.752
	c3.228-1.971,5.429-5.885,5.429-10.395c0-4.509-2.201-8.423-5.429-10.395h15.944c-0.018,0.129-0.029,0.26-0.029,0.395
	c0,1.381,0.97,2.5,2.165,2.5c0.117,0,0.23-0.014,0.343-0.034V20.034z"/>
<path fill="#3D9970" d="M24.998,23.201c-5.112,0-9.271-4.801-9.271-10.701c0-5.901,4.158-10.702,9.271-10.702
	s9.271,4.801,9.271,10.702C34.269,18.4,30.11,23.201,24.998,23.201z"/>
<g>
	<path fill="#01FF70" d="M28.69,12.791c0.253,0.233,0.451,0.506,0.594,0.816c0.142,0.311,0.213,0.682,0.213,1.111
		c0,0.938-0.379,1.726-1.139,2.361c-0.76,0.637-1.715,0.991-2.867,1.062v2.528h-0.778V18.16c-1.253-0.023-2.269-0.305-3.047-0.847
		c-0.778-0.54-1.167-1.212-1.167-2.013c0-0.352,0.082-0.623,0.246-0.811c0.165-0.188,0.396-0.283,0.693-0.283
		c0.335,0,0.598,0.08,0.788,0.238c0.189,0.158,0.284,0.346,0.284,0.561c0,0.161-0.061,0.404-0.18,0.73
		c-0.121,0.326-0.196,0.549-0.229,0.668c0.184,0.311,0.502,0.562,0.954,0.752c0.452,0.191,1.005,0.291,1.656,0.297v-4.537
		c-0.278-0.095-0.521-0.178-0.726-0.25c-0.206-0.072-0.477-0.173-0.812-0.305c-0.729-0.281-1.298-0.65-1.709-1.107
		s-0.617-1.05-0.617-1.779c0-0.861,0.38-1.587,1.14-2.178c0.759-0.592,1.667-0.896,2.724-0.915V4.329h0.778v2.053
		c0.627,0.012,1.181,0.099,1.661,0.26c0.481,0.161,0.874,0.361,1.178,0.6c0.304,0.239,0.533,0.502,0.688,0.789
		c0.155,0.287,0.233,0.565,0.233,0.833c0,0.269-0.066,0.498-0.2,0.686c-0.133,0.188-0.351,0.282-0.654,0.282
		c-0.311,0-0.568-0.075-0.773-0.224c-0.206-0.149-0.309-0.316-0.309-0.502c0-0.221,0.025-0.44,0.075-0.659
		c0.051-0.218,0.096-0.411,0.133-0.578c-0.019-0.036-0.082-0.1-0.189-0.193s-0.234-0.178-0.38-0.255
		c-0.158-0.084-0.367-0.158-0.626-0.224c-0.26-0.066-0.538-0.099-0.836-0.099v4.159c0.247,0.084,0.454,0.157,0.622,0.22
		c0.168,0.062,0.375,0.139,0.622,0.229c0.392,0.144,0.753,0.3,1.082,0.471S28.438,12.553,28.69,12.791z M24.713,11.043V7.099
		c-0.613,0-1.129,0.165-1.547,0.493c-0.418,0.329-0.627,0.732-0.627,1.21c0,0.52,0.13,0.936,0.39,1.246s0.651,0.568,1.177,0.771
		c0.076,0.03,0.171,0.065,0.285,0.107S24.612,11.007,24.713,11.043z M27.713,15.445c0-0.49-0.135-0.916-0.403-1.277
		c-0.27-0.362-0.727-0.662-1.372-0.901c-0.082-0.03-0.16-0.057-0.232-0.081c-0.072-0.023-0.144-0.047-0.214-0.071v4.329
		c0.741-0.041,1.296-0.24,1.666-0.596S27.713,16.024,27.713,15.445z"/>
</g>
</svg>
