<?xml version="1.0" encoding="utf-8"?>
<!-- Generator: Adobe Illustrator 16.0.0, SVG Export Plug-In . SVG Version: 6.00 Build 0)  -->
<!DOCTYPE svg PUBLIC "-//W3C//DTD SVG 1.1//EN" "http://www.w3.org/Graphics/SVG/1.1/DTD/svg11.dtd">
<svg version="1.1" id="Layer_1" xmlns="http://www.w3.org/2000/svg" xmlns:xlink="http://www.w3.org/1999/xlink" x="0px" y="0px"
	 width="100px" height="100px" viewBox="0 0 100 100" enable-background="new 0 0 100 100" xml:space="preserve">
<rect fill="#AAAAAA" width="100" height="100"/>
<linearGradient id="SVGID_1_" gradientUnits="userSpaceOnUse" x1="-1785" y1="-2368" x2="-1685" y2="-2368" gradientTransform="matrix(-1 0 0 -1 -1685 -2318)">
	<stop  offset="0" style="stop-color:#FFFFFF;stop-opacity:0"/>
	<stop  offset="1" style="stop-color:#111111"/>
</linearGradient>
<rect opacity="0.3" fill="url(#SVGID_1_)" enable-background="new    " width="100" height="100"/>
<polygon opacity="0.1" fill="#111111" enable-background="new    " points="50,50 0,100 0,0 "/>
<polygon opacity="0.1" fill="#FFFFFF" enable-background="new    " points="50,50 100,100 100,0 "/>
<path fill="#AAAAAA" d="M15.115,15.115C11.87,25.336,10,37.258,10,50s1.87,24.664,5.115,34.885C25.336,88.131,37.258,90,50,90
	s24.664-1.869,34.885-5.115C88.131,74.665,90,62.742,90,50s-1.869-24.664-5.115-34.885C74.664,11.87,62.742,10,50,10
	S25.336,11.87,15.115,15.115z"/>
<linearGradient id="SVGID_2_" gradientUnits="userSpaceOnUse" x1="1802" y1="-2368" x2="1882" y2="-2368" gradientTransform="matrix(1 0 0 -1 -1792 -2318)">
	<stop  offset="0" style="stop-color:#FFFFFF;stop-opacity:0"/>
	<stop  offset="1" style="stop-color:#111111"/>
</linearGradient>
<path opacity="0.3" fill="url(#SVGID_2_)" enable-background="new    " d="M15.115,15.115C11.87,25.336,10,37.258,10,50
	s1.87,24.664,5.115,34.885C25.337,88.131,37.258,90,50,90s24.664-1.869,34.885-5.115C88.131,74.665,90,62.742,90,50
	s-1.869-24.664-5.115-34.885C74.664,11.87,62.742,10,50,10S25.337,11.87,15.115,15.115z"/>
<g opacity="0.1">
	<path fill="#FFFFFF" d="M50,10.5c12.137,0,24.057,1.733,34.486,5.014C87.768,25.943,89.5,37.862,89.5,50
		c0,12.141-1.732,24.059-5.014,34.486C74.057,87.768,62.139,89.5,50,89.5c-12.138,0-24.057-1.732-34.486-5.014
		C12.233,74.057,10.5,62.137,10.5,50c0-12.137,1.733-24.055,5.014-34.486C25.945,12.233,37.864,10.5,50,10.5 M50,10
		c-12.742,0-24.664,1.87-34.885,5.115C11.87,25.336,10,37.258,10,50s1.87,24.664,5.115,34.885C25.336,88.131,37.258,90,50,90
		s24.664-1.869,34.885-5.115C88.131,74.665,90,62.742,90,50s-1.869-24.664-5.115-34.885C74.664,11.87,62.742,10,50,10L50,10z"/>
</g>
<g opacity="0.8">
	<path fill="#FFFFFF" d="M40.229,55.189c0.178-0.853,0.46-1.773,0.842-2.764c0.381-0.987,0.954-1.887,1.719-2.696
		c1.034-1.078,2.202-1.82,3.504-2.224c-0.496-0.225-0.976-0.472-1.447-0.74c-0.472-0.271-0.889-0.606-1.248-1.012
		c-0.63-0.675-1.091-1.404-1.382-2.191c-0.293-0.784-0.504-1.524-0.639-2.224c-0.134-0.697-0.203-1.303-0.203-1.818
		c0-0.515,0-0.819,0-0.91v-4.379c0-0.765,0.091-1.552,0.269-2.361c0.135-0.672,0.371-1.415,0.708-2.224
		c0.337-0.809,0.819-1.593,1.45-2.358c0.718-0.809,1.604-1.391,2.66-1.752C47.517,25.179,48.696,25,50.001,25
		c1.302,0,2.47,0.192,3.504,0.573c1.031,0.381,1.908,0.954,2.627,1.717c0.628,0.718,1.113,1.472,1.447,2.259
		c0.338,0.784,0.573,1.538,0.711,2.256c0.178,0.809,0.269,1.618,0.269,2.427v4.379c0,0.091,0,0.381,0,0.875
		c0,0.496-0.058,1.091-0.17,1.788c-0.112,0.696-0.327,1.448-0.64,2.256c-0.314,0.809-0.786,1.549-1.414,2.224
		c-0.362,0.406-0.776,0.74-1.248,1.012c-0.472,0.269-0.954,0.516-1.447,0.74c1.39,0.403,2.582,1.146,3.569,2.224
		c0.766,0.809,1.338,1.708,1.72,2.696c0.381,0.99,0.663,1.911,0.842,2.764c0.178,1.033,0.269,2.043,0.269,3.033l0.068,5.322
		c0.044,1.077-0.021,2.133-0.203,3.166c-0.134,0.899-0.392,1.843-0.772,2.83c-0.385,0.99-0.957,1.889-1.72,2.695
		c-0.853,0.899-1.919,1.585-3.2,2.057C52.933,74.765,51.526,75,50.001,75c-1.53,0-2.931-0.235-4.212-0.707
		c-1.28-0.472-2.35-1.157-3.203-2.057c-0.762-0.807-1.335-1.705-1.716-2.695c-0.384-0.987-0.642-1.931-0.776-2.83
		c-0.181-1.033-0.247-2.089-0.203-3.166l0.068-5.322C39.96,57.232,40.048,56.223,40.229,55.189z M58.56,58.153
		c0-1.034-0.068-1.919-0.203-2.662c-0.135-0.74-0.359-1.538-0.675-2.392c-0.312-0.853-0.809-1.639-1.48-2.357
		c-1.483-1.574-3.551-2.358-6.2-2.358c-2.652,0-4.719,0.784-6.2,2.358c-0.675,0.719-1.171,1.505-1.483,2.357
		c-0.315,0.854-0.54,1.651-0.675,2.392c-0.134,0.743-0.2,1.628-0.2,2.662l-0.069,5.392c-0.09,0.942-0.046,1.863,0.135,2.764
		c0.134,0.765,0.359,1.606,0.674,2.525c0.312,0.921,0.809,1.74,1.483,2.459c0.715,0.766,1.615,1.338,2.695,1.719
		c1.078,0.382,2.268,0.574,3.57,0.574c1.303,0,2.515-0.192,3.639-0.574c1.125-0.381,2.046-0.953,2.765-1.719
		c0.628-0.719,1.11-1.538,1.447-2.459c0.337-0.919,0.573-1.761,0.708-2.525c0.181-0.9,0.225-1.821,0.134-2.764L58.56,58.153z
		 M57.278,34.232c0-0.718-0.068-1.439-0.202-2.158c-0.091-0.628-0.28-1.292-0.573-1.988c-0.294-0.696-0.708-1.357-1.245-1.988
		c-1.215-1.256-2.967-1.886-5.256-1.886c-1.171,0-2.191,0.145-3.068,0.438c-0.875,0.293-1.629,0.773-2.256,1.448
		c-0.538,0.631-0.955,1.292-1.248,1.988c-0.291,0.697-0.482,1.36-0.57,1.988c-0.181,0.718-0.25,1.439-0.203,2.158v4.379
		c-0.047,0.765,0,1.527,0.134,2.292c0.09,0.628,0.269,1.313,0.54,2.054c0.269,0.74,0.672,1.426,1.212,2.056
		c0.584,0.672,1.371,1.157,2.358,1.448c0.987,0.293,2.021,0.438,3.101,0.438c1.078,0,2.089-0.156,3.033-0.472
		s1.728-0.787,2.358-1.415c0.493-0.493,0.886-1.113,1.179-1.854c0.291-0.74,0.482-1.45,0.573-2.122c0.134-0.809,0.2-1.618,0.2-2.427
		L57.278,34.232z"/>
</g>
</svg>
