<?xml version="1.0" encoding="utf-8"?>
<!-- Generator: Adobe Illustrator 16.0.0, SVG Export Plug-In . SVG Version: 6.00 Build 0)  -->
<!DOCTYPE svg PUBLIC "-//W3C//DTD SVG 1.1//EN" "http://www.w3.org/Graphics/SVG/1.1/DTD/svg11.dtd">
<svg version="1.1" id="Layer_1" xmlns="http://www.w3.org/2000/svg" xmlns:xlink="http://www.w3.org/1999/xlink" x="0px" y="0px"
	 width="100px" height="100px" viewBox="0 0 100 100" enable-background="new 0 0 100 100" xml:space="preserve">
<rect fill="#AAAAAA" width="100" height="100"/>
<linearGradient id="SVGID_1_" gradientUnits="userSpaceOnUse" x1="-1020" y1="1432" x2="-920" y2="1432" gradientTransform="matrix(-1 0 0 1 -920 -1382)">
	<stop  offset="0" style="stop-color:#FFFFFF;stop-opacity:0"/>
	<stop  offset="1" style="stop-color:#111111"/>
</linearGradient>
<rect opacity="0.3" fill="url(#SVGID_1_)" enable-background="new    " width="100" height="100"/>
<polygon opacity="0.1" fill="#111111" enable-background="new    " points="50,50 0,100 0,0 "/>
<polygon opacity="0.1" fill="#FFFFFF" enable-background="new    " points="50,50 100,100 100,0 "/>
<path fill="#AAAAAA" d="M15.115,15.115C11.87,25.336,10,37.258,10,50s1.87,24.664,5.115,34.885C25.336,88.131,37.258,90,50,90
	s24.664-1.869,34.885-5.115C88.131,74.665,90,62.742,90,50s-1.869-24.664-5.115-34.885C74.664,11.87,62.742,10,50,10
	S25.336,11.87,15.115,15.115z"/>
<linearGradient id="SVGID_2_" gradientUnits="userSpaceOnUse" x1="1034" y1="1432" x2="1114" y2="1432" gradientTransform="matrix(1 0 0 1 -1024 -1382)">
	<stop  offset="0" style="stop-color:#FFFFFF;stop-opacity:0"/>
	<stop  offset="1" style="stop-color:#111111"/>
</linearGradient>
<path opacity="0.3" fill="url(#SVGID_2_)" enable-background="new    " d="M15.115,15.115C11.87,25.336,10,37.258,10,50
	s1.87,24.664,5.115,34.885C25.337,88.131,37.258,90,50,90s24.664-1.869,34.885-5.115C88.131,74.665,90,62.742,90,50
	s-1.869-24.664-5.115-34.885C74.664,11.87,62.742,10,50,10S25.337,11.87,15.115,15.115z"/>
<g opacity="0.1">
	<path fill="#FFFFFF" d="M50,10.5c12.137,0,24.057,1.733,34.486,5.014C87.768,25.943,89.5,37.862,89.5,50
		c0,12.141-1.732,24.059-5.014,34.486C74.057,87.768,62.139,89.5,50,89.5c-12.138,0-24.057-1.732-34.486-5.014
		C12.233,74.057,10.5,62.137,10.5,50c0-12.137,1.733-24.055,5.014-34.486C25.945,12.233,37.864,10.5,50,10.5 M50,10
		c-12.742,0-24.664,1.87-34.885,5.115C11.87,25.336,10,37.258,10,50s1.87,24.664,5.115,34.885C25.336,88.131,37.258,90,50,90
		s24.664-1.869,34.885-5.115C88.131,74.665,90,62.742,90,50s-1.869-24.664-5.115-34.885C74.664,11.87,62.742,10,50,10L50,10z"/>
</g>
<g opacity="0.8">
	<path fill="#FFFFFF" d="M60.016,63.606c-0.047,0.139-0.07,0.503-0.07,1.094s-0.08,1.308-0.238,2.147
		c-0.158,0.842-0.433,1.738-0.818,2.693c-0.386,0.957-0.966,1.842-1.738,2.661C55.377,74.067,52.943,75,49.852,75
		c-3.047,0-5.434-0.933-7.164-2.798c-0.771-0.819-1.352-1.729-1.737-2.729c-0.389-0.999-0.649-1.954-0.786-2.864
		c-0.183-1.047-0.25-2.115-0.205-3.205h1.501c0,0.044,0,0.341,0,0.885c0,0.547,0.056,1.205,0.169,1.979
		c0.114,0.775,0.33,1.615,0.649,2.523c0.316,0.91,0.819,1.729,1.501,2.457c1.407,1.545,3.433,2.316,6.07,2.316
		c2.682,0,4.773-0.793,6.275-2.387c0.683-0.727,1.182-1.521,1.502-2.387c0.316-0.863,0.543-1.671,0.68-2.42
		c0.136-0.752,0.205-1.648,0.205-2.695L60.016,63.606z M58.514,63.676V53.24c0-0.045,0.012-0.353,0.033-0.922
		c0.022-0.568-0.021-1.238-0.136-2.012c-0.114-0.772-0.33-1.602-0.646-2.49c-0.319-0.885-0.819-1.693-1.502-2.42
		c-1.501-1.637-3.524-2.456-6.07-2.456c-2.093-0.044-3.936-0.069-5.526-0.069c-1.593,0-3.025,0-4.296,0l0.066-17.119V25h19.167
		v0.752v0.408H41.939l-0.067,15.415l8.321,0.069c3.045,0,5.432,0.933,7.161,2.798c0.774,0.816,1.354,1.715,1.74,2.692
		c0.386,0.979,0.646,1.901,0.785,2.764c0.137,0.863,0.191,1.602,0.17,2.215c-0.022,0.616-0.033,0.99-0.033,1.127v10.366
		L58.514,63.676z"/>
</g>
</svg>
