<?xml version="1.0" encoding="utf-8"?>
<!-- Generator: Adobe Illustrator 16.0.0, SVG Export Plug-In . SVG Version: 6.00 Build 0)  -->
<!DOCTYPE svg PUBLIC "-//W3C//DTD SVG 1.1//EN" "http://www.w3.org/Graphics/SVG/1.1/DTD/svg11.dtd">
<svg version="1.1" id="Layer_1" xmlns="http://www.w3.org/2000/svg" xmlns:xlink="http://www.w3.org/1999/xlink" x="0px" y="0px"
	 width="100px" height="100px" viewBox="0 0 100 100" enable-background="new 0 0 100 100" xml:space="preserve">
<rect fill="#AAAAAA" width="100" height="100"/>
<linearGradient id="SVGID_1_" gradientUnits="userSpaceOnUse" x1="-2040" y1="2814" x2="-1940" y2="2814" gradientTransform="matrix(-1 0 0 1 -1940 -2764)">
	<stop  offset="0" style="stop-color:#FFFFFF;stop-opacity:0"/>
	<stop  offset="1" style="stop-color:#111111"/>
</linearGradient>
<rect opacity="0.3" fill="url(#SVGID_1_)" enable-background="new    " width="100" height="100"/>
<polygon opacity="0.1" fill="#111111" enable-background="new    " points="50,50 0,100 0,0 "/>
<polygon opacity="0.1" fill="#FFFFFF" enable-background="new    " points="50,50 100,100 100,0 "/>
<path fill="#AAAAAA" d="M15.115,15.115C11.87,25.336,10,37.258,10,50s1.87,24.664,5.115,34.885C25.336,88.131,37.258,90,50,90
	s24.664-1.869,34.885-5.115C88.131,74.665,90,62.742,90,50s-1.869-24.664-5.115-34.885C74.664,11.87,62.742,10,50,10
	S25.336,11.87,15.115,15.115z"/>
<linearGradient id="SVGID_2_" gradientUnits="userSpaceOnUse" x1="2058" y1="2814" x2="2138" y2="2814" gradientTransform="matrix(1 0 0 1 -2048 -2764)">
	<stop  offset="0" style="stop-color:#FFFFFF;stop-opacity:0"/>
	<stop  offset="1" style="stop-color:#111111"/>
</linearGradient>
<path opacity="0.3" fill="url(#SVGID_2_)" enable-background="new    " d="M15.115,15.115C11.87,25.336,10,37.258,10,50
	s1.87,24.664,5.115,34.885C25.337,88.131,37.258,90,50,90s24.664-1.869,34.885-5.115C88.131,74.665,90,62.742,90,50
	s-1.869-24.664-5.115-34.885C74.664,11.87,62.742,10,50,10S25.337,11.87,15.115,15.115z"/>
<g opacity="0.1">
	<path fill="#FFFFFF" d="M50,10.5c12.137,0,24.057,1.733,34.486,5.014C87.768,25.943,89.5,37.862,89.5,50
		c0,12.141-1.732,24.059-5.014,34.486C74.057,87.768,62.139,89.5,50,89.5c-12.138,0-24.057-1.732-34.486-5.014
		C12.233,74.057,10.5,62.137,10.5,50c0-12.137,1.733-24.055,5.014-34.486C25.945,12.233,37.864,10.5,50,10.5 M50,10
		c-12.742,0-24.664,1.87-34.885,5.115C11.87,25.336,10,37.258,10,50s1.87,24.664,5.115,34.885C25.336,88.131,37.258,90,50,90
		s24.664-1.869,34.885-5.115C88.131,74.665,90,62.742,90,50s-1.869-24.664-5.115-34.885C74.664,11.87,62.742,10,50,10L50,10z"/>
</g>
<g opacity="0.8">
	<path fill="#FFFFFF" d="M40.27,35.134c0-0.582,0.076-1.287,0.232-2.114c0.156-0.828,0.423-1.712,0.803-2.652
		c0.38-0.939,0.948-1.813,1.707-2.616C44.749,25.917,47.135,25,50.167,25c2.988,0,5.332,0.917,7.024,2.752
		c0.757,0.803,1.325,1.699,1.704,2.685c0.379,0.983,0.637,1.912,0.77,2.783c0.135,0.874,0.203,1.625,0.203,2.25
		c0,0.625,0,1.005,0,1.141v27.517c0,1.789-0.235,3.513-0.705,5.167s-1.289,2.952-2.449,3.892c-0.896,0.718-1.904,1.198-3.021,1.444
		C52.572,74.877,51.409,75,50.202,75c-0.628,0-1.456-0.058-2.485-0.167c-1.029-0.112-2.045-0.526-3.053-1.242
		c-1.005-0.716-1.878-1.847-2.616-3.39c-0.74-1.543-1.108-3.746-1.108-6.611h1.409c-0.044,2.551,0.246,4.498,0.874,5.839
		c0.625,1.344,1.376,2.327,2.247,2.955c0.874,0.625,1.756,0.983,2.652,1.073c0.893,0.09,1.587,0.134,2.081,0.134
		c1.026,0,2.034-0.112,3.021-0.336c0.982-0.224,1.867-0.683,2.648-1.376c0.784-0.694,1.412-1.655,1.882-2.887
		c0.47-1.229,0.704-2.852,0.704-4.864V52.852c0.045,0.358-0.101,0.807-0.437,1.342c-0.336,0.537-0.661,0.985-0.972,1.344
		c-1.746,1.834-4.141,2.752-7.183,2.752c-2.999,0-5.347-0.918-7.048-2.752c-0.759-0.807-1.33-1.688-1.709-2.652
		c-0.382-0.961-0.639-1.867-0.773-2.717c-0.134-0.849-0.202-1.578-0.202-2.182s0-0.972,0-1.106l0.068-10.672
		C40.245,36.074,40.27,35.716,40.27,35.134z M41.542,46.88c0,0.09,0,0.401,0,0.939c0,0.535,0.057,1.185,0.169,1.944
		c0.112,0.762,0.325,1.578,0.642,2.449c0.314,0.874,0.808,1.669,1.48,2.385c1.393,1.521,3.392,2.283,5.997,2.283
		c2.652,0,4.716-0.784,6.199-2.352c0.898-0.983,1.529-2.104,1.888-3.354c0.36-1.254,0.54-2.262,0.54-3.021V36.543
		c0.045-1.117-0.002-2.081-0.137-2.887c-0.133-0.806-0.357-1.655-0.671-2.551c-0.317-0.893-0.812-1.699-1.483-2.414
		c-1.393-1.521-3.392-2.283-5.997-2.283c-2.652,0-4.719,0.784-6.199,2.349c-0.675,0.716-1.169,1.5-1.483,2.349
		c-0.317,0.852-0.541,1.644-0.674,2.384c-0.134,0.737-0.202,1.622-0.202,2.651L41.542,46.88z"/>
</g>
</svg>
