<?xml version="1.0" encoding="utf-8"?>
<!-- Generator: Adobe Illustrator 16.0.0, SVG Export Plug-In . SVG Version: 6.00 Build 0)  -->
<!DOCTYPE svg PUBLIC "-//W3C//DTD SVG 1.1//EN" "http://www.w3.org/Graphics/SVG/1.1/DTD/svg11.dtd">
<svg version="1.1" id="Layer_1" xmlns="http://www.w3.org/2000/svg" xmlns:xlink="http://www.w3.org/1999/xlink" x="0px" y="0px"
	 width="100px" height="100px" viewBox="0 0 100 100" enable-background="new 0 0 100 100" xml:space="preserve">
<rect fill="#AAAAAA" width="100" height="100"/>
<linearGradient id="SVGID_1_" gradientUnits="userSpaceOnUse" x1="-1275" y1="-1677" x2="-1175" y2="-1677" gradientTransform="matrix(-1 0 0 -1 -1175 -1627)">
	<stop  offset="0" style="stop-color:#FFFFFF;stop-opacity:0"/>
	<stop  offset="1" style="stop-color:#111111"/>
</linearGradient>
<rect opacity="0.3" fill="url(#SVGID_1_)" enable-background="new    " width="100" height="100"/>
<polygon opacity="0.1" fill="#111111" enable-background="new    " points="50,50 0,100 0,0 "/>
<polygon opacity="0.1" fill="#FFFFFF" enable-background="new    " points="50,50 100,100 100,0 "/>
<path fill="#AAAAAA" d="M15.115,15.115C11.87,25.336,10,37.258,10,50s1.87,24.664,5.115,34.885C25.336,88.131,37.258,90,50,90
	s24.664-1.869,34.885-5.115C88.131,74.665,90,62.742,90,50s-1.869-24.664-5.115-34.885C74.664,11.87,62.742,10,50,10
	S25.336,11.87,15.115,15.115z"/>
<linearGradient id="SVGID_2_" gradientUnits="userSpaceOnUse" x1="1290" y1="-1677" x2="1370" y2="-1677" gradientTransform="matrix(1 0 0 -1 -1280 -1627)">
	<stop  offset="0" style="stop-color:#FFFFFF;stop-opacity:0"/>
	<stop  offset="1" style="stop-color:#111111"/>
</linearGradient>
<path opacity="0.3" fill="url(#SVGID_2_)" enable-background="new    " d="M15.115,15.115C11.87,25.336,10,37.258,10,50
	s1.87,24.664,5.115,34.885C25.337,88.131,37.258,90,50,90s24.664-1.869,34.885-5.115C88.131,74.665,90,62.742,90,50
	s-1.869-24.664-5.115-34.885C74.664,11.87,62.742,10,50,10S25.337,11.87,15.115,15.115z"/>
<g opacity="0.1">
	<path fill="#FFFFFF" d="M50,10.5c12.137,0,24.057,1.733,34.486,5.014C87.768,25.943,89.5,37.862,89.5,50
		c0,12.141-1.732,24.059-5.014,34.486C74.057,87.768,62.139,89.5,50,89.5c-12.138,0-24.057-1.732-34.486-5.014
		C12.233,74.057,10.5,62.137,10.5,50c0-12.137,1.733-24.055,5.014-34.486C25.945,12.233,37.864,10.5,50,10.5 M50,10
		c-12.742,0-24.664,1.87-34.885,5.115C11.87,25.336,10,37.258,10,50s1.87,24.664,5.115,34.885C25.336,88.131,37.258,90,50,90
		s24.664-1.869,34.885-5.115C88.131,74.665,90,62.742,90,50s-1.869-24.664-5.115-34.885C74.664,11.87,62.742,10,50,10L50,10z"/>
</g>
<g opacity="0.8">
	<path fill="#FFFFFF" d="M59.731,64.865c0,0.582-0.079,1.286-0.234,2.114c-0.156,0.83-0.424,1.712-0.803,2.651
		c-0.38,0.939-0.948,1.813-1.704,2.619C55.294,74.085,52.907,75,49.832,75c-2.943,0-5.284-0.915-7.023-2.75
		c-0.76-0.806-1.327-1.701-1.704-2.685c-0.38-0.986-0.637-1.914-0.771-2.786c-0.134-0.873-0.199-1.622-0.199-2.25
		c0-0.625,0-1.005,0-1.139V35.872c0-1.789,0.243-3.512,0.734-5.167c0.489-1.655,1.316-2.952,2.475-3.892
		c0.893-0.715,1.895-1.196,3.009-1.444C47.467,25.123,48.628,25,49.832,25c0.579,0,1.426,0.057,2.543,0.169
		c1.114,0.112,2.217,0.524,3.31,1.24c1.092,0.718,2.04,1.846,2.843,3.389c0.803,1.546,1.204,3.75,1.204,6.612h-1.344
		c0.044-2.551-0.292-4.495-1.01-5.839c-0.719-1.344-1.552-2.327-2.494-2.952c-0.944-0.628-1.897-0.986-2.864-1.076
		c-0.967-0.087-1.696-0.134-2.19-0.134c-1.032,0-2.054,0.112-3.063,0.336c-1.011,0.224-1.901,0.683-2.663,1.376
		c-0.765,0.694-1.382,1.655-1.854,2.887c-0.47,1.231-0.704,2.851-0.704,4.864l0.06,11.276c-0.043-0.358,0.112-0.806,0.47-1.341
		c0.355-0.538,0.691-0.983,1.003-1.344c1.695-1.833,4.08-2.75,7.157-2.75c2.941,0,5.284,0.917,7.021,2.75
		c0.759,0.806,1.316,1.69,1.674,2.652c0.355,0.961,0.601,1.868,0.734,2.717c0.134,0.852,0.202,1.578,0.202,2.182s0,0.973,0,1.109
		l-0.068,10.669C59.754,63.926,59.731,64.286,59.731,64.865z M58.456,53.123c0-0.047,0-0.348,0-0.907s-0.057-1.218-0.169-1.98
		c-0.112-0.762-0.314-1.578-0.606-2.45c-0.292-0.874-0.775-1.666-1.447-2.384c-1.393-1.521-3.395-2.28-5.997-2.28
		c-2.695,0-4.763,0.784-6.202,2.349c-0.898,0.983-1.537,2.103-1.92,3.356c-0.382,1.253-0.57,2.259-0.57,3.021v11.608
		c-0.047,1.12,0,2.081,0.134,2.887s0.357,1.655,0.675,2.551c0.313,0.896,0.808,1.701,1.482,2.417c1.393,1.521,3.389,2.28,5.994,2.28
		c2.695,0,4.763-0.781,6.202-2.349c0.672-0.716,1.177-1.499,1.516-2.349c0.336-0.85,0.56-1.645,0.672-2.384
		c0.112-0.737,0.169-1.62,0.169-2.649L58.456,53.123z"/>
</g>
</svg>
