<?xml version="1.0" encoding="utf-8"?>
<!-- Generator: Adobe Illustrator 16.0.0, SVG Export Plug-In . SVG Version: 6.00 Build 0)  -->
<!DOCTYPE svg PUBLIC "-//W3C//DTD SVG 1.1//EN" "http://www.w3.org/Graphics/SVG/1.1/DTD/svg11.dtd">
<svg version="1.1" id="Layer_1" xmlns="http://www.w3.org/2000/svg" xmlns:xlink="http://www.w3.org/1999/xlink" x="0px" y="0px"
	 width="100px" height="100px" viewBox="0 0 100 100" enable-background="new 0 0 100 100" xml:space="preserve">
<rect fill="#AAAAAA" width="100" height="100"/>
<linearGradient id="SVGID_1_" gradientUnits="userSpaceOnUse" x1="-510" y1="741" x2="-410" y2="741" gradientTransform="matrix(-1 0 0 1 -410 -691)">
	<stop  offset="0" style="stop-color:#FFFFFF;stop-opacity:0"/>
	<stop  offset="1" style="stop-color:#111111"/>
</linearGradient>
<rect opacity="0.3" fill="url(#SVGID_1_)" enable-background="new    " width="100" height="100"/>
<polygon opacity="0.1" fill="#111111" enable-background="new    " points="50,50 0,100 0,0 "/>
<polygon opacity="0.1" fill="#FFFFFF" enable-background="new    " points="50,50 100,100 100,0 "/>
<path fill="#AAAAAA" d="M15.115,15.115C11.87,25.336,10,37.258,10,50s1.87,24.664,5.115,34.885C25.336,88.131,37.258,90,50,90
	s24.664-1.869,34.885-5.115C88.131,74.665,90,62.742,90,50s-1.869-24.664-5.115-34.885C74.664,11.87,62.742,10,50,10
	S25.336,11.87,15.115,15.115z"/>
<linearGradient id="SVGID_2_" gradientUnits="userSpaceOnUse" x1="522" y1="741" x2="602" y2="741" gradientTransform="matrix(1 0 0 1 -512 -691)">
	<stop  offset="0" style="stop-color:#FFFFFF;stop-opacity:0"/>
	<stop  offset="1" style="stop-color:#111111"/>
</linearGradient>
<path opacity="0.3" fill="url(#SVGID_2_)" enable-background="new    " d="M15.115,15.115C11.87,25.336,10,37.258,10,50
	s1.87,24.664,5.115,34.885C25.337,88.131,37.258,90,50,90s24.664-1.869,34.885-5.115C88.131,74.665,90,62.742,90,50
	s-1.869-24.664-5.115-34.885C74.664,11.87,62.742,10,50,10S25.337,11.87,15.115,15.115z"/>
<g opacity="0.1">
	<path fill="#FFFFFF" d="M50,10.5c12.137,0,24.057,1.733,34.486,5.014C87.768,25.943,89.5,37.862,89.5,50
		c0,12.141-1.732,24.059-5.014,34.486C74.057,87.768,62.139,89.5,50,89.5c-12.138,0-24.057-1.732-34.486-5.014
		C12.233,74.057,10.5,62.137,10.5,50c0-12.137,1.733-24.055,5.014-34.486C25.945,12.233,37.864,10.5,50,10.5 M50,10
		c-12.742,0-24.664,1.87-34.885,5.115C11.87,25.336,10,37.258,10,50s1.87,24.664,5.115,34.885C25.336,88.131,37.258,90,50,90
		s24.664-1.869,34.885-5.115C88.131,74.665,90,62.742,90,50s-1.869-24.664-5.115-34.885C74.664,11.87,62.742,10,50,10L50,10z"/>
</g>
<g opacity="0.8">
	<path fill="#FFFFFF" d="M56.506,71.088c0.629-0.72,1.112-1.494,1.45-2.329c0.338-0.832,0.596-1.631,0.777-2.394
		c0.178-0.854,0.269-1.711,0.269-2.564v-5.264c0.044-0.945-0.024-1.89-0.203-2.834c-0.135-0.811-0.37-1.653-0.708-2.531
		c-0.338-0.877-0.821-1.697-1.45-2.463c-1.395-1.53-3.399-2.296-6.008-2.296H46.79v-1.28h3.306c1.035,0,2.067-0.17,3.102-0.508
		s1.969-0.876,2.801-1.62c0.832-0.741,1.519-1.697,2.06-2.866c0.538-1.17,0.832-2.586,0.876-4.25l0.068-2.092
		c0.044-0.854-0.024-1.689-0.203-2.499c-0.135-0.717-0.37-1.472-0.708-2.26c-0.338-0.786-0.821-1.541-1.45-2.26
		c-1.485-1.573-3.577-2.361-6.276-2.361c-1.395,0-2.586,0.2-3.575,0.606c-0.991,0.404-1.823,0.989-2.499,1.755
		c-0.585,0.675-1.01,1.45-1.282,2.328c-0.269,0.876-0.437,1.719-0.505,2.529c-0.069,0.81-0.08,1.755-0.033,2.836h-1.351
		c0-0.047-0.022-0.374-0.066-0.98c-0.046-0.607-0.014-1.348,0.102-2.227c0.11-0.876,0.313-1.798,0.607-2.765
		c0.291-0.97,0.774-1.856,1.45-2.667C44.832,25.944,47.215,25,50.364,25c3.105,0,5.555,0.944,7.355,2.833
		c0.72,0.81,1.271,1.653,1.653,2.529c0.382,0.879,0.65,1.7,0.81,2.463c0.156,0.766,0.236,1.42,0.236,1.958c0,0.541,0,0.878,0,1.013
		l-0.068,2.092c-0.091,1.889-0.426,3.451-1.011,4.689c-0.585,1.236-1.508,2.395-2.768,3.474c-0.403,0.362-0.821,0.643-1.247,0.846
		c-0.428,0.2-0.89,0.393-1.384,0.571c0.764,0.228,1.461,0.519,2.093,0.879c0.629,0.36,1.188,0.832,1.686,1.417
		c0.764,0.854,1.337,1.777,1.722,2.768c0.382,0.988,0.662,1.934,0.843,2.834c0.179,1.035,0.247,2.092,0.203,3.172v5.129
		c-0.047,1.035-0.159,2.045-0.338,3.036c-0.181,0.854-0.472,1.776-0.878,2.765c-0.404,0.992-0.988,1.867-1.755,2.634
		C55.718,74.033,53.267,75,50.161,75c-1.035,0-2.216-0.146-3.542-0.437c-1.326-0.294-2.576-0.934-3.745-1.925
		c-1.17-0.988-2.024-2.314-2.565-3.981c-0.538-1.664-0.81-3.44-0.81-5.329h1.419c0,2.158,0.302,3.912,0.909,5.264
		c0.607,1.348,1.373,2.395,2.295,3.135c0.923,0.744,1.922,1.25,3.004,1.52c1.079,0.271,2.089,0.406,3.034,0.406
		C52.906,73.652,55.021,72.798,56.506,71.088z"/>
</g>
</svg>
