<?xml version="1.0" encoding="utf-8"?>
<!-- Generator: Adobe Illustrator 16.0.0, SVG Export Plug-In . SVG Version: 6.00 Build 0)  -->
<!DOCTYPE svg PUBLIC "-//W3C//DTD SVG 1.1//EN" "http://www.w3.org/Graphics/SVG/1.1/DTD/svg11.dtd">
<svg version="1.1" id="Layer_1" xmlns="http://www.w3.org/2000/svg" xmlns:xlink="http://www.w3.org/1999/xlink" x="0px" y="0px"
	 width="100px" height="100px" viewBox="0 0 100 100" enable-background="new 0 0 100 100" xml:space="preserve">
<rect fill="#AAAAAA" width="100" height="100"/>
<linearGradient id="SVGID_1_" gradientUnits="userSpaceOnUse" x1="-255" y1="-295" x2="-155" y2="-295" gradientTransform="matrix(-1 0 0 -1 -155 -245)">
	<stop  offset="0" style="stop-color:#FFFFFF;stop-opacity:0"/>
	<stop  offset="1" style="stop-color:#111111"/>
</linearGradient>
<rect opacity="0.3" fill="url(#SVGID_1_)" enable-background="new    " width="100" height="100"/>
<polygon opacity="0.1" fill="#111111" enable-background="new    " points="50,50 0,100 0,0 "/>
<polygon opacity="0.1" fill="#FFFFFF" enable-background="new    " points="50,50 100,100 100,0 "/>
<path fill="#AAAAAA" d="M15.115,15.115C11.87,25.336,10,37.258,10,50s1.87,24.664,5.115,34.885C25.336,88.131,37.258,90,50,90
	s24.664-1.869,34.885-5.115C88.131,74.665,90,62.742,90,50s-1.869-24.664-5.115-34.885C74.664,11.87,62.742,10,50,10
	S25.336,11.87,15.115,15.115z"/>
<linearGradient id="SVGID_2_" gradientUnits="userSpaceOnUse" x1="266" y1="-295" x2="346" y2="-295" gradientTransform="matrix(1 0 0 -1 -256 -245)">
	<stop  offset="0" style="stop-color:#FFFFFF;stop-opacity:0"/>
	<stop  offset="1" style="stop-color:#111111"/>
</linearGradient>
<path opacity="0.3" fill="url(#SVGID_2_)" enable-background="new    " d="M15.115,15.115C11.87,25.336,10,37.258,10,50
	s1.87,24.664,5.115,34.885C25.337,88.131,37.258,90,50,90s24.664-1.869,34.885-5.115C88.131,74.665,90,62.742,90,50
	s-1.869-24.664-5.115-34.885C74.664,11.87,62.742,10,50,10S25.337,11.87,15.115,15.115z"/>
<g opacity="0.1">
	<path fill="#FFFFFF" d="M50,10.5c12.137,0,24.057,1.733,34.486,5.014C87.768,25.943,89.5,37.862,89.5,50
		c0,12.141-1.732,24.059-5.014,34.486C74.057,87.768,62.139,89.5,50,89.5c-12.138,0-24.057-1.732-34.486-5.014
		C12.233,74.057,10.5,62.137,10.5,50c0-12.137,1.733-24.055,5.014-34.486C25.945,12.233,37.864,10.5,50,10.5 M50,10
		c-12.742,0-24.664,1.87-34.885,5.115C11.87,25.336,10,37.258,10,50s1.87,24.664,5.115,34.885C25.336,88.131,37.258,90,50,90
		s24.664-1.869,34.885-5.115C88.131,74.665,90,62.742,90,50s-1.869-24.664-5.115-34.885C74.664,11.87,62.742,10,50,10L50,10z"/>
</g>
<g opacity="0.8">
	<path fill="#FFFFFF" d="M39.422,75v-0.678c0-2.043,0.282-4.025,0.85-5.955c0.567-1.926,1.439-3.91,2.619-5.951
		c1.043-1.769,2.187-3.482,3.435-5.137c1.249-1.656,2.527-3.275,3.845-4.863c1.495-1.813,2.799-3.414,3.911-4.798
		c1.11-1.381,2.041-2.685,2.791-3.911c0.747-1.224,1.314-2.447,1.699-3.673c0.385-1.224,0.578-2.607,0.578-4.149v-0.069
		c0-0.407-0.011-0.813-0.033-1.223c-0.024-0.407-0.08-0.817-0.171-1.224c-0.136-0.725-0.363-1.498-0.682-2.314
		c-0.315-0.817-0.794-1.564-1.428-2.245c-1.495-1.586-3.604-2.38-6.325-2.38c-2.812,0-4.855,0.772-6.123,2.314
		c-0.59,0.678-1.011,1.473-1.26,2.38c-0.249,0.908-0.406,1.758-0.476,2.55c-0.066,0.794-0.08,1.757-0.033,2.893H41.19
		c0-0.044-0.024-0.385-0.069-1.021c-0.044-0.634-0.021-1.381,0.069-2.245c0.089-0.861,0.282-1.78,0.576-2.754
		c0.293-0.975,0.777-1.872,1.456-2.688c1.583-1.904,4-2.857,7.255-2.857c3.164,0,5.628,0.953,7.388,2.857
		c0.723,0.772,1.276,1.611,1.661,2.516c0.385,0.908,0.656,1.747,0.813,2.519c0.158,0.772,0.238,1.439,0.238,2.007s0,0.916,0,1.055
		c0,1.63-0.26,3.186-0.78,4.659c-0.521,1.476-1.221,2.904-2.102,4.285c-0.88,1.384-1.888,2.768-3.017,4.152
		c-1.13,1.381-2.281,2.798-3.458,4.251c-1.265,1.542-2.496,3.096-3.695,4.659c-1.198,1.563-2.28,3.175-3.252,4.83
		s-1.764,3.38-2.372,5.171c-0.612,1.791-0.961,3.662-1.053,5.611l18.641-0.137V75H39.422z"/>
</g>
</svg>
