<?xml version="1.0" encoding="utf-8"?>
<!-- Generator: Adobe Illustrator 16.0.0, SVG Export Plug-In . SVG Version: 6.00 Build 0)  -->
<!DOCTYPE svg PUBLIC "-//W3C//DTD SVG 1.1//EN" "http://www.w3.org/Graphics/SVG/1.1/DTD/svg11.dtd">
<svg version="1.1" id="Layer_1" xmlns="http://www.w3.org/2000/svg" xmlns:xlink="http://www.w3.org/1999/xlink" x="0px" y="0px"
	 width="100px" height="100px" viewBox="0 0 100 100" enable-background="new 0 0 100 100" xml:space="preserve">
<rect fill="#AAAAAA" width="100" height="100"/>
<linearGradient id="SVGID_1_" gradientUnits="userSpaceOnUse" x1="-510" y1="741" x2="-410" y2="741" gradientTransform="matrix(-1 0 0 1 -410 -691)">
	<stop  offset="0" style="stop-color:#FFFFFF;stop-opacity:0"/>
	<stop  offset="1" style="stop-color:#111111"/>
</linearGradient>
<rect opacity="0.3" fill="url(#SVGID_1_)" enable-background="new    " width="100" height="100"/>
<polygon opacity="0.1" fill="#111111" enable-background="new    " points="50,50 0,100 0,0 "/>
<polygon opacity="0.1" fill="#FFFFFF" enable-background="new    " points="50,50 100,100 100,0 "/>
<path fill="#AAAAAA" d="M15.115,15.115C11.87,25.336,10,37.258,10,50s1.87,24.664,5.115,34.885C25.336,88.131,37.258,90,50,90
	s24.664-1.869,34.885-5.115C88.131,74.665,90,62.742,90,50s-1.869-24.664-5.115-34.885C74.664,11.87,62.742,10,50,10
	S25.336,11.87,15.115,15.115z"/>
<linearGradient id="SVGID_2_" gradientUnits="userSpaceOnUse" x1="522" y1="741" x2="602" y2="741" gradientTransform="matrix(1 0 0 1 -512 -691)">
	<stop  offset="0" style="stop-color:#FFFFFF;stop-opacity:0"/>
	<stop  offset="1" style="stop-color:#111111"/>
</linearGradient>
<path opacity="0.3" fill="url(#SVGID_2_)" enable-background="new    " d="M15.115,15.115C11.87,25.336,10,37.258,10,50
	s1.87,24.664,5.115,34.885C25.337,88.131,37.258,90,50,90s24.664-1.869,34.885-5.115C88.131,74.665,90,62.742,90,50
	s-1.869-24.664-5.115-34.885C74.664,11.87,62.742,10,50,10S25.337,11.87,15.115,15.115z"/>
<g opacity="0.1">
	<path fill="#FFFFFF" d="M50,10.5c12.137,0,24.057,1.733,34.486,5.014C87.768,25.943,89.5,37.862,89.5,50
		c0,12.141-1.732,24.059-5.014,34.486C74.057,87.768,62.139,89.5,50,89.5c-12.138,0-24.057-1.732-34.486-5.014
		C12.233,74.057,10.5,62.137,10.5,50c0-12.137,1.733-24.055,5.014-34.486C25.945,12.233,37.864,10.5,50,10.5 M50,10
		c-12.742,0-24.664,1.87-34.885,5.115C11.87,25.336,10,37.258,10,50s1.87,24.664,5.115,34.885C25.336,88.131,37.258,90,50,90
		s24.664-1.869,34.885-5.115C88.131,74.665,90,62.742,90,50s-1.869-24.664-5.115-34.885C74.664,11.87,62.742,10,50,10L50,10z"/>
</g>
<g opacity="0.8">
	<path fill="#FFFFFF" d="M59.867,63.792c0,0.134,0,0.495,0,1.073c0,0.582-0.091,1.286-0.271,2.113
		c-0.177,0.83-0.458,1.713-0.838,2.652c-0.379,0.939-0.95,1.813-1.712,2.619c-1.745,1.835-4.138,2.75-7.18,2.75
		c-2.999,0-5.347-0.915-7.048-2.75c-0.762-0.806-1.33-1.701-1.709-2.685c-0.383-0.985-0.639-1.915-0.773-2.786
		c-0.134-0.873-0.202-1.621-0.202-2.25c0-0.625,0-1.005,0-1.139V35.872c0-1.789,0.256-3.389,0.773-4.798
		c0.513-1.409,1.33-2.605,2.449-3.591c0.893-0.803,1.901-1.417,3.021-1.843c1.117-0.426,2.28-0.639,3.49-0.639
		c1.207,0,2.382,0.202,3.522,0.604c1.142,0.404,2.158,0.985,3.054,1.745c2.282,2.016,3.425,4.856,3.425,8.523V63.792z
		 M58.455,35.872c0-1.743-0.257-3.22-0.773-4.43c-0.519-1.207-1.193-2.179-2.023-2.919c-0.83-0.737-1.762-1.275-2.793-1.608
		c-1.035-0.336-2.046-0.505-3.035-0.505c-1.035,0-2.056,0.191-3.067,0.571c-1.01,0.382-1.898,0.951-2.66,1.712
		c-0.765,0.762-1.382,1.745-1.854,2.952c-0.472,1.21-0.707,2.619-0.707,4.228v27.584c-0.044,1.12,0,2.081,0.134,2.887
		c0.136,0.806,0.36,1.655,0.674,2.551c0.317,0.896,0.809,1.701,1.483,2.417c1.393,1.521,3.392,2.28,5.997,2.28
		c2.649,0,4.716-0.781,6.199-2.349c0.675-0.716,1.17-1.5,1.483-2.349c0.313-0.85,0.538-1.644,0.675-2.384
		c0.134-0.738,0.201-1.619,0.201-2.649L58.455,35.872z"/>
</g>
</svg>
